<svg width="217" height="64" viewBox="0 0 217 64" fill="none"
    xmlns="http://www.w3.org/2000/svg">
    <path d="M97.1528 15.754C97.1528 12.3045 94.3764 9.50715 90.9527 9.51101H79.1499L79.1231 15.9932C79.1231 21.6265 80.3562 21.9506 85.2198 21.9506L90.9566 22.0008L90.9527 22.977H83.9407C81.4285 22.977 78.1849 22.5641 78.1849 17.1777V7.98306C78.1849 3.66546 77.5874 1.90216 72.4673 1.68994V22.4908C72.4673 25.9403 75.2437 28.7376 78.6674 28.7376H97.1528V15.754ZM90.9527 16.244H85.3539V15.2717H90.9527V16.244Z" fill="#ED1C24"/>
    <path d="M64.6015 9.39148H51.6345C48.2109 9.39148 45.4344 12.1889 45.4344 15.6383V22.8575H41.2831V9.41077C38.0663 9.65771 35.4468 12.3625 35.4468 15.6383H34.4779V9.41077C31.2841 9.65771 28.7833 12.3509 28.7833 15.6383H27.8145L27.7953 9.40691C24.5938 9.65385 22.0816 12.347 22.0816 15.6344H21.1127L21.128 9.40691C17.9303 9.65771 15.4142 12.347 15.4142 15.6344V22.8575H6.91637V9.41077C2.97572 9.68086 1.08008 12.2622 1.08008 15.6344V22.8304C1.08008 26.6889 4.18971 28.6142 7.28019 28.6142H14.9279C18.7613 28.6142 21.128 26.7429 21.128 22.4485L22.0969 22.4523L22.093 28.676C25.2869 28.4175 27.8145 25.6587 27.8145 22.3674H28.7833V28.5988C31.9772 28.348 34.4779 25.6587 34.4779 22.3674H35.4468C35.4468 27.1365 38.5488 28.6142 41.6469 28.6142H44.9481C48.7815 28.6142 51.1482 26.7429 51.1482 22.4485L51.1979 15.6306L52.1668 15.6383L52.0979 22.4369C52.0979 27.2985 53.691 28.6142 57.2985 28.6142H59.5847C62.8935 28.6142 64.6053 25.9519 64.6053 22.3674V9.39148H64.6015ZM58.8839 22.3713H57.915V15.6383H58.8839V22.3713Z" fill="#ED1C24"/>
    <path d="M65.6279 28.7184C68.8218 28.4715 71.3225 25.7783 71.3225 22.4909V9.52649C68.1287 9.77729 65.6279 12.4666 65.6279 15.754V22.4909V28.7184Z" fill="#ED1C24"/>
    <path d="M133.132 9.5072C129.708 9.5072 126.955 12.3007 126.955 15.754V28.7184C130.148 28.4676 132.649 25.7783 132.649 22.4909V15.2679H139.355V9.5072H133.132Z" fill="#ED1C24"/>
    <path d="M113.578 15.754V22.977H109.427V15.7193C109.427 11.2126 107.508 9.63065 103.59 9.51489V22.95C103.59 26.8123 106.7 28.7377 109.79 28.7377H113.092C116.925 28.7377 119.292 26.8663 119.292 22.5719V9.52647C116.098 9.77727 113.578 12.4705 113.578 15.754Z" fill="#ED1C24"/>
    <path d="M120.234 1.68994V22.6066C120.234 25.8862 122.746 28.51 125.951 28.7531V8.05637C125.951 4.18635 123.746 1.88286 120.234 1.68994Z" fill="#ED1C24"/>
    <path d="M140.339 1.68994V22.6066C140.339 25.8862 142.852 28.51 146.057 28.7531V8.05637C146.057 4.18635 143.851 1.88286 140.339 1.68994Z" fill="#ED1C24"/>
    <path d="M47.5252 31.4039C45.9168 31.4039 44.6147 32.7158 44.6147 34.3402C44.6147 35.9607 45.9168 37.2726 47.5252 37.2726C49.1337 37.2726 50.4357 35.9607 50.4357 34.3402C50.4396 32.7158 49.1337 31.4039 47.5252 31.4039Z" fill="#ED1C24"/>
    <path d="M40.8694 31.4039C39.261 31.4039 37.9551 32.7158 37.9551 34.3402C37.9551 35.9607 39.261 37.2726 40.8694 37.2726C42.4778 37.2726 43.7837 35.9607 43.7837 34.3402C43.7837 32.7158 42.4778 31.4039 40.8694 31.4039Z" fill="#ED1C24"/>
    <path d="M139.367 31.4039C137.758 31.4039 136.456 32.7158 136.456 34.3402C136.456 35.9607 137.758 37.2726 139.367 37.2726C140.975 37.2726 142.281 35.9607 142.281 34.3402C142.277 32.7158 140.975 31.4039 139.367 31.4039Z" fill="#ED1C24"/>
    <path d="M132.707 31.4039C131.098 31.4039 129.792 32.7158 129.792 34.3402C129.792 35.9607 131.098 37.2726 132.707 37.2726C134.315 37.2726 135.621 35.9607 135.621 34.3402C135.621 32.7158 134.319 31.4039 132.707 31.4039Z" fill="#ED1C24"/>
    <path d="M88.2835 0.740845C86.675 0.740845 85.3691 2.05271 85.3691 3.67326C85.3691 5.29766 86.675 6.60953 88.2835 6.60953C89.8919 6.60953 91.1978 5.29766 91.1978 3.67326C91.1978 2.05657 89.8919 0.740845 88.2835 0.740845Z" fill="#ED1C24"/>
    <path d="M111.652 0.740845C110.043 0.740845 108.741 2.05271 108.741 3.67326C108.741 5.29766 110.043 6.60953 111.652 6.60953C113.26 6.60953 114.566 5.29766 114.566 3.67326C114.562 2.05657 113.26 0.740845 111.652 0.740845Z" fill="#ED1C24"/>
    <path d="M2.4203 46.0891H0V63.8495H2.4203V46.0891Z" fill="#ED1C24"/>
    <path d="M16.7738 63.8495H14.4147V58.8027C14.4147 57.0124 13.3501 56.1211 11.2247 56.1211H8.63205V53.8947H10.7421C11.6995 53.8947 12.4846 53.6478 13.1012 53.1539C13.7714 52.6099 14.1084 51.8729 14.1084 50.9392C14.1084 50.0479 13.8135 49.3495 13.2314 48.8363C12.6455 48.3231 11.9063 48.0685 11.0141 48.0685C10.0069 48.0685 9.18733 48.3926 8.55162 49.0408C7.91591 49.689 7.59806 50.5225 7.59806 51.5411V63.8997H5.22754V52.7295C5.22754 48.1341 7.17297 45.8422 11.06 45.8422C12.5918 45.8422 13.8633 46.2975 14.8781 47.2119C15.9427 48.1688 16.475 49.4074 16.475 50.9353C16.475 52.7912 15.8049 54.0799 14.4607 54.8092C16.0002 55.4111 16.7699 56.5956 16.7699 58.359V63.8495H16.7738Z" fill="#ED1C24"/>
    <path d="M31.0235 63.8495H28.6568V55.7969H22.3188V53.5089H28.653C28.653 49.8472 27.4543 48.0183 25.0531 48.0183C23.9004 48.0183 22.989 48.408 22.3265 49.1797C21.6946 49.9167 21.3806 50.8813 21.3806 52.0735V63.8495H18.9756L19.0254 52.0735C19.033 50.3218 19.5807 48.8479 20.6721 47.644C21.7942 46.4055 23.2035 45.792 24.9076 45.792C26.8377 45.792 28.3581 46.4556 29.4648 47.7829C30.5027 49.0292 31.0235 50.6459 31.0235 52.633V63.8495Z" fill="#ED1C24"/>
    <path d="M46.0966 62.4026C46.0966 63.4676 45.503 63.9962 44.3159 63.9962C43.2704 63.9962 42.5275 63.5524 42.0947 62.6611L35.6342 49.1566V63.8495H33.2637V48.327C33.2637 47.6441 33.4283 47.0769 33.7539 46.6332C34.1138 46.1393 34.6232 45.8923 35.278 45.8923C36.2048 45.8923 36.8903 46.3592 37.3384 47.2891L43.7223 60.485V46.0891H46.0928V62.4026H46.0966Z" fill="#ED1C24"/>
    <path d="M66.7688 51.4948C66.7688 52.9379 66.3438 54.2112 65.4898 55.3185C64.5668 56.5147 63.4065 57.1127 62.0163 57.1127H58.6156V54.8864C58.8033 54.8864 59.1096 54.898 59.5347 54.9134C59.9636 54.9288 60.2892 54.9366 60.5189 54.9366C61.9359 54.9366 62.9469 54.6086 63.552 53.9488C64.1149 53.3276 64.3983 52.5134 64.3983 51.4987C64.3983 50.426 64.1034 49.581 63.506 48.956C62.9124 48.3348 62.0891 48.0222 61.0321 48.0222C59.9177 48.0222 59.0714 48.3849 58.4893 49.1103C57.9493 49.7778 57.6774 50.6807 57.6774 51.8189V63.8534H55.3184V51.7688C55.3184 50.0788 55.8468 48.6704 56.9 47.5399C57.9799 46.3785 59.3547 45.7959 61.0244 45.7959C62.6942 45.7959 64.069 46.3245 65.1451 47.3817C66.2289 48.4389 66.7688 49.8087 66.7688 51.4948Z" fill="#ED1C24"/>
    <path d="M80.743 63.8495H78.3227V55.6966H70.6979V63.8495H68.3657V46.0389H70.6979V53.4587H78.3227V45.9888H80.743V63.8495Z" fill="#ED1C24"/>
    <path d="M95.2345 63.8495H92.864V55.7969H86.5298V53.5089H92.864C92.864 49.8472 91.6653 48.0183 89.268 48.0183C88.1153 48.0183 87.2038 48.408 86.5413 49.1797C85.9133 49.9167 85.5954 50.8813 85.5954 52.0735V63.8495H83.1904L83.2402 52.0735C83.2479 50.3218 83.7955 48.8479 84.8869 47.644C86.009 46.4055 87.4183 45.792 89.1225 45.792C91.0526 45.792 92.5729 46.4556 93.6759 47.7829C94.7137 49.0292 95.2345 50.6459 95.2345 52.633V63.8495Z" fill="#ED1C24"/>
    <path d="M108.971 63.8495H106.616V58.8027C106.616 57.0124 105.551 56.1211 103.422 56.1211H100.833V53.8947H102.943C103.901 53.8947 104.686 53.6478 105.302 53.1539C105.973 52.6099 106.31 51.8729 106.31 50.9392C106.31 50.0479 106.015 49.3495 105.433 48.8363C104.847 48.3231 104.108 48.0685 103.215 48.0685C102.208 48.0685 101.389 48.3926 100.753 49.0408C100.121 49.689 99.7993 50.5225 99.7993 51.5411V63.8997H97.4326V52.7295C97.4326 48.1341 99.3742 45.8422 103.265 45.8422C104.797 45.8422 106.068 46.2975 107.083 47.2119C108.148 48.1688 108.68 49.4074 108.68 50.9353C108.68 52.7912 108.01 54.0799 106.666 54.8092C108.205 55.4111 108.975 56.5956 108.975 58.359V63.8495H108.971Z" fill="#ED1C24"/>
    <path d="M129.827 63.8496H127.346L125.603 49.3032L121.586 62.5647C121.291 63.5216 120.739 64 119.928 64C119.181 64 118.672 63.5409 118.392 62.6148L114.363 49.2569L112.705 63.8534H110.189L112.154 48.0724C112.341 46.5213 113.046 45.7457 114.267 45.7457C115.248 45.7457 115.937 46.3862 116.332 47.6634L120.027 59.9101L123.539 47.9258C123.956 46.5059 124.68 45.7998 125.71 45.7998C126.258 45.7998 126.717 45.9811 127.085 46.3438C127.43 46.6988 127.637 47.1579 127.709 47.7174L129.827 63.8496Z" fill="#ED1C24"/>
    <path d="M133.756 46.0891H131.336V63.8495H133.756V46.0891Z" fill="#ED1C24"/>
    <path d="M147.286 59.285C147.286 60.7628 146.815 61.9011 145.873 62.7113C144.992 63.4714 143.797 63.8496 142.3 63.8496H135.916V61.6233H142.128C144 61.6233 144.939 60.8824 144.939 59.3969C144.939 58.3937 144.173 57.4638 142.641 56.615C141.216 55.8665 139.792 55.1102 138.367 54.3539C136.827 53.2967 136.058 52.0157 136.058 50.5071C136.058 49.2299 136.479 48.1727 137.321 47.3393C138.164 46.5097 139.221 46.093 140.489 46.093H146.516V48.3309H140.489C139.883 48.3309 139.378 48.5238 138.98 48.9135C138.578 49.2994 138.378 49.7971 138.378 50.4106C138.378 51.2942 139.148 52.1276 140.688 52.9186C143.353 54.2883 144.785 55.0407 144.973 55.1719C146.516 56.2677 147.286 57.6452 147.286 59.285Z" fill="#ED1C24"/>
    <path d="M153.743 0H213.009L153.743 59.7017V0Z" fill="#D1D3D4"/>
    <path d="M171.079 31.863C171.079 23.9146 177.478 17.4672 185.371 17.4672C193.264 17.4672 199.663 23.9146 199.663 31.863C199.663 39.8153 193.264 46.2589 185.371 46.2589C177.478 46.2589 171.079 39.8153 171.079 31.863Z" fill="#ED1C24"/>
    <path d="M157.316 63.7261L170.662 50.2832H203.658V17.0427L217 3.59607V48.4852L201.869 63.7261H157.316Z" fill="#ED1C24"/>
</svg>
